<svg xmlns="http://www.w3.org/2000/svg" xmlns:xlink="http://www.w3.org/1999/xlink" xmlns:lucid="lucid" width="1499.33" height="839.53"><g transform="translate(-1555 -175.4678172829959)" lucid:page-tab-id="PL-nZYSw3IIe"><path d="M1500 0h2000v1000H1500z" fill="#fff"/><path d="M1576 203.43a5 5 0 0 1 5-5h261a5 5 0 0 1 5 5V799a5 5 0 0 1-5 5h-261a5 5 0 0 1-5-5z" stroke="#000" stroke-width="2" fill="#fff"/><path d="M1904 463.67a5 5 0 0 1 5-5h150a5 5 0 0 1 5 5v110a5 5 0 0 1-5 5h-150a5 5 0 0 1-5-5z" stroke="#000" stroke-width="2" fill="#ced4db"/><use xlink:href="#a" transform="matrix(1,0,0,1,1916,470.6678172829958) translate(29.549999999999997 50.4)"/><path d="M2309.33 463.67a5 5 0 0 1 5-5h150a5 5 0 0 1 5 5v110a5 5 0 0 1-5 5h-150a5 5 0 0 1-5-5z" stroke="#000" stroke-width="2" fill="#ced4db"/><use xlink:href="#b" transform="matrix(1,0,0,1,2321.333333333333,470.6678172829958) translate(17.574999999999996 50.4)"/><path d="M2127.95 492.5h-62.45v-1h62.45zm164 0h-46.57v-1h46.57z" stroke="#3a414a" stroke-width=".05" fill="#3a414a"/><path d="M2065.5 492.5h-.5v-1h.5z" fill="#3a414a"/><path d="M2065.54 492.52h-.57v-1.04h.57zm-.5-1v.96h.45v-.96z" stroke="#3a414a" stroke-width=".05" fill="#3a414a"/><path d="M2306.7 492l-14.25 4.63v-9.26z" fill="#3a414a"/><path d="M2308.33 492l-16.38 5.32v-10.64zm-15.38 3.95l12.15-3.95-12.15-3.95z" stroke="#3a414a" stroke-width=".05" fill="#3a414a"/><use xlink:href="#c" transform="matrix(1,0,0,1,2127.9505930404785,481.33333121218874) translate(0 14.222222222222223)"/><use xlink:href="#d" transform="matrix(1,0,0,1,2127.9505930404785,481.33333121218874) translate(46.370370370370374 14.222222222222223)"/><path d="M2117.14 544.5h-35.76v-1h35.76zm190.7 0h-51.64v-1h51.63z" stroke="#3a414a" stroke-width=".05" fill="#3a414a"/><path d="M2308.33 544.5h-.5v-1h.5z" fill="#3a414a"/><path d="M2308.36 544.52h-.56v-1.04h.56zm-.5-1v.96h.45v-.96z" stroke="#3a414a" stroke-width=".05" fill="#3a414a"/><path d="M2080.88 548.63l-14.26-4.63 14.26-4.63z" fill="#3a414a"/><path d="M2081.38 549.32L2065 544l16.38-5.32zm-13.14-5.32l12.14 3.95v-7.9z" stroke="#3a414a" stroke-width=".05" fill="#3a414a"/><use xlink:href="#e" transform="matrix(1,0,0,1,2117.1358254983934,533.3333342423579) translate(0 14.222222222222223)"/><use xlink:href="#f" transform="matrix(1,0,0,1,2117.1358254983934,533.3333342423579) translate(76 14.222222222222223)"/><use xlink:href="#g" transform="matrix(1,0,0,1,2117.1358254983934,533.3333342423579) translate(97.62962962962963 14.222222222222223)"/><path d="M2502.67 201.47a5 5 0 0 1 5-5h150a5 5 0 0 1 5 5v57.2a5 5 0 0 1-5 5h-150a5 5 0 0 1-5-5z" stroke="#000" stroke-width="2" fill="#fff3d9"/><use xlink:href="#h" transform="matrix(1,0,0,1,2514.6666666666683,208.4678172829959) translate(21.575000000000003 17.15)"/><use xlink:href="#i" transform="matrix(1,0,0,1,2514.6666666666683,208.4678172829959) translate(70.475 17.15)"/><use xlink:href="#j" transform="matrix(1,0,0,1,2514.6666666666683,208.4678172829959) translate(80.475 17.15)"/><use xlink:href="#k" transform="matrix(1,0,0,1,2514.6666666666683,208.4678172829959) translate(46.05 38.75)"/><path d="M2466.84 457.7l-.92-.4 35.3-85.32h1.08zm73.5-177.7l-29.22 70.65h-1.08l29.38-71.03z" stroke="#3a414a" stroke-width=".05" fill="#3a414a"/><path d="M2466.85 457.68l-.2.47-.46-.2-.5-.1.22-.56z" fill="#3a414a"/><path d="M2466.88 457.66l-.22.52-.48-.2-.52-.12.25-.6zm-1.15.16l.47.12.44.18.17-.43-.86-.37z" stroke="#3a414a" stroke-width=".05" fill="#3a414a"/><path d="M2544.36 281.12l-8.57-3.55 9.73-11.4z" fill="#3a414a"/><path d="M2544.8 281.84l-9.84-4.07 11.2-13.1zm-8.18-4.46l7.3 3 1-12.72z" stroke="#3a414a" stroke-width=".05" fill="#3a414a"/><use xlink:href="#l" transform="matrix(1,0,0,1,2427.7967196084264,350.64649915805325) translate(0.0049999999999954525 14.222222222222223)"/><use xlink:href="#m" transform="matrix(1,0,0,1,2427.7967196084264,350.64649915805325) translate(51.31364197530864 14.222222222222223)"/><use xlink:href="#n" transform="matrix(1,0,0,1,2427.7967196084264,350.64649915805325) translate(61.190185185185186 14.222222222222223)"/><path d="M2772 300.94a5 5 0 0 1 5-5h150a5 5 0 0 1 5 5v44.67a5 5 0 0 1-5 5h-150a5 5 0 0 1-5-5z" stroke="#000" stroke-width="2" fill="#fff3d9"/><use xlink:href="#o" transform="matrix(1,0,0,1,2784.0000000000014,307.94229800874825) translate(35.55 18.275)"/><use xlink:href="#p" transform="matrix(1,0,0,1,2784.0000000000014,307.94229800874825) translate(69.55 18.275)"/><path d="M2471 488.2l-.47-.88 129.63-71.02h2.08zm285.87-156.6l-115.7 63.37h-2.07l117.3-64.26z" stroke="#3a414a" stroke-width=".05" fill="#3a414a"/><path d="M2471.02 488.2l-.7.37v-1.14l.22-.12z" fill="#3a414a"/><path d="M2471.06 488.2l-.75.4v-1.2l.25-.12zm-.7-.75v1.08l.63-.35-.47-.83z" stroke="#3a414a" stroke-width=".05" fill="#3a414a"/><path d="M2759.3 334.97l-4.46-8.13 14.74-2.8z" fill="#3a414a"/><path d="M2759.2 335.82l-5.13-9.34 16.93-3.2zm-3.6-8.6l3.8 6.9 8.76-9.3z" stroke="#3a414a" stroke-width=".05" fill="#3a414a"/><use xlink:href="#q" transform="matrix(1,0,0,1,2573.9012206279835,394.9711491559248) translate(0 14.222222222222223)"/><use xlink:href="#r" transform="matrix(1,0,0,1,2573.9012206279835,394.9711491559248) translate(68.8888888888889 14.222222222222223)"/><path d="M2870.67 430.72a5 5 0 0 1 5-5h150a5 5 0 0 1 5 5v44.67a5 5 0 0 1-5 5h-150a5 5 0 0 1-5-5z" stroke="#000" stroke-width="2" fill="#fff3d9"/><use xlink:href="#s" transform="matrix(1,0,0,1,2882.6666666666674,437.7205736962098) translate(46.05 18.275)"/><path d="M2470.93 537.72l-.2-.98 146.3-30.88h4.85zm382.8-80.8l-130.77 27.6h-4.84l135.4-28.57z" stroke="#3a414a" stroke-width=".05" fill="#3a414a"/><path d="M2470.94 537.72l-.6.12v-1.02l.4-.08z" fill="#3a414a"/><path d="M2470.97 537.74l-.66.13v-1.07l.45-.1zm-.6-.9v.97l.54-.1-.2-.93z" stroke="#3a414a" stroke-width=".05" fill="#3a414a"/><path d="M2868.08 453.4l-13 7.47-1.9-9.07z" fill="#3a414a"/><path d="M2869.67 453.05l-14.93 8.6-2.2-10.42zm-14.24 7.04l11.07-6.38-12.7-1.35z" stroke="#3a414a" stroke-width=".05" fill="#3a414a"/><use xlink:href="#t" transform="matrix(1,0,0,1,2577.4074158917297,484.5269512420594) translate(0.0049999999999954525 14.222222222222223)"/><use xlink:href="#u" transform="matrix(1,0,0,1,2577.4074158917297,484.5269512420594) translate(83.70870370370369 14.222222222222223)"/><use xlink:href="#v" transform="matrix(1,0,0,1,2577.4074158917297,484.5269512420594) translate(143.80746913580245 14.222222222222223)"/><use xlink:href="#w" transform="matrix(1,0,0,1,2577.4074158917297,484.5269512420594) translate(153.68401234567898 14.222222222222223)"/><path d="M2873.33 560.5a5 5 0 0 1 5-5h150a5 5 0 0 1 5 5v110a5 5 0 0 1-5 5h-150a5 5 0 0 1-5-5z" stroke="#000" stroke-width="2" fill="#ced4db"/><use xlink:href="#x" transform="matrix(1,0,0,1,2885.3333333333344,567.4988493836713) translate(34.525 50.4)"/><path d="M2856.1 613.33l-.12 1-150.17-15.43v-1zM2636.8 590.8v1.02l-166.08-17.05.1-1z" stroke="#3a414a" stroke-width=".05" fill="#3a414a"/><path d="M2470.85 573.77l-.1 1-.5-.06v-.1l.08-.88z" fill="#3a414a"/><path d="M2470.88 573.75l-.1 1.04-.57-.06.04-.14.07-.9zm-.6.86v.1l.45.04.1-.95-.47-.05z" stroke="#3a414a" stroke-width=".05" fill="#3a414a"/><path d="M2870.72 615.33l-14.66 3.16.95-9.24z" fill="#3a414a"/><path d="M2872.33 615.5l-16.84 3.62 1.08-10.6zm-15.7 2.35l12.48-2.68-11.67-5.17z" stroke="#3a414a" stroke-width=".05" fill="#3a414a"/><use xlink:href="#y" transform="matrix(1,0,0,1,2636.8194456390415,584.1915183299265) translate(0.005000000000002558 14.222222222222223)"/><use xlink:href="#z" transform="matrix(1,0,0,1,2636.8194456390415,584.1915183299265) translate(36.44944444444445 14.222222222222223)"/><path d="M2710.67 736.33a5 5 0 0 1 5-5h150a5 5 0 0 1 5 5v110a5 5 0 0 1-5 5h-150a5 5 0 0 1-5-5z" stroke="#1071e5" stroke-width="2" fill="#fff"/><use xlink:href="#A" transform="matrix(1,0,0,1,2722.6666666666674,743.3333333333337) translate(28.074999999999996 41.4)"/><use xlink:href="#B" transform="matrix(1,0,0,1,2722.6666666666674,743.3333333333337) translate(33.05 63)"/><path d="M2713.33 879a5 5 0 0 1 5-5h150a5 5 0 0 1 5 5v110a5 5 0 0 1-5 5h-150a5 5 0 0 1-5-5z" stroke="#1071e5" stroke-width="2" fill="#fff"/><use xlink:href="#C" transform="matrix(1,0,0,1,2725.3333333333344,886.0000000000005) translate(6.599999999999994 41.4)"/><use xlink:href="#B" transform="matrix(1,0,0,1,2725.3333333333344,886.0000000000005) translate(33.05 63)"/><path d="M2872.67 791.33h12.44m12.46 0h24.88m12.45 0h12.43l.94-.07.92-.22.86-.36.8-.5.72-.6.6-.72.5-.8.36-.87.22-.93.07-.94v-8.92m0-8.9v-17.84m0-8.92V722.9m0-8.9v-17.85m0-8.9v-8.93" stroke="#1071e5" stroke-width="2" fill="none"/><path d="M2872.7 792.33h-1.03v-2h1.02z" stroke="#1071e5" stroke-width=".05" fill="#1071e5"/><path d="M2963.5 695.68l-10.17-17.22-10.18 17.22M2875.33 934h12m12 0h24m12 0h12l.94-.07.92-.22.86-.35.8-.5.72-.6.6-.72.5-.8.36-.88.22-.9.07-.95v-10.4m0-10.4v-20.8m0-10.42v-20.8m0-10.4v-20.8m0-10.42v-20.8m0-10.4v-20.82m0-10.4v-20.8m0-10.4V699.1m0-10.4v-10.4" stroke="#1071e5" stroke-width="2" fill="none"/><path d="M2875.36 935h-1.03v-2h1.03z" stroke="#1071e5" stroke-width=".05" fill="#1071e5"/><path d="M2963.5 695.68l-10.17-17.22-10.18 17.22" stroke="#1071e5" stroke-width="2" fill="none"/><path d="M2481.33 694.73a5 5 0 0 1 5-5h150a5 5 0 0 1 5 5v44.67a5 5 0 0 1-5 5h-150a5 5 0 0 1-5-5z" stroke="#000" stroke-width="2" fill="#fff3d9"/><use xlink:href="#D" transform="matrix(1,0,0,1,2493.333333333333,701.7337689444811) translate(37.074999999999996 18.275)"/><path d="M2511.43 676.8l-.7.7-32.64-32.63h1.4zm-53.26-53.27h-1.4l-43.17-43.15.7-.7z" stroke="#3a414a" stroke-width=".05" fill="#3a414a"/><path d="M2414.32 579.68l-.7.7-.73-.7h1.4z" fill="#3a414a"/><path d="M2414.35 579.68l-.74.74-.77-.78h1.5zm-1.4 0l.66.67.66-.66z" stroke="#3a414a" stroke-width=".05" fill="#3a414a"/><path d="M2521.52 687.6l-13.36-6.82 6.55-6.55z" fill="#3a414a"/><path d="M2522.67 688.73l-15.35-7.82 7.53-7.52zm-13.67-8.08l11.38 5.8-5.8-11.38z" stroke="#3a414a" stroke-width=".05" fill="#3a414a"/><use xlink:href="#E" transform="matrix(1,0,0,1,2445.466957236076,623.5341312468781) translate(0 14.222222222222223)"/><path d="M2149.33 689a5 5 0 0 1 5-5h150a5 5 0 0 1 5 5v110a5 5 0 0 1-5 5h-150a5 5 0 0 1-5-5z" stroke="#000" stroke-width="2" fill="#ced4db"/><use xlink:href="#F" transform="matrix(1,0,0,1,2161.333333333333,696.0000000000002) translate(17.049999999999997 50.4)"/><path d="M2464.1 788.38l-.1 1-37.16-4.08v-1zm-100.27-11v1l-53.05-5.83.1-1z" stroke="#3a414a" stroke-width=".05" fill="#3a414a"/><path d="M2310.9 771.56l-.1 1-.47-.06v-1z" fill="#3a414a"/><path d="M2310.93 771.54l-.12 1.04-.5-.06v-1.05zm-.57.94l.4.04.1-.94-.5-.06z" stroke="#3a414a" stroke-width=".05" fill="#3a414a"/><path d="M2478.72 790.5l-14.68 3.04 1-9.2z" fill="#3a414a"/><path d="M2480.33 790.67l-16.86 3.5 1.16-10.58zm-15.72 2.24l12.52-2.6-11.65-5.24z" stroke="#3a414a" stroke-width=".05" fill="#3a414a"/><use xlink:href="#G" transform="matrix(1,0,0,1,2363.8271526801404,770.6666630303067) translate(0.004999999999999005 14.222222222222223)"/><path d="M2481.33 785.57a5 5 0 0 1 5-5h150a5 5 0 0 1 5 5v57.2a5 5 0 0 1-5 5h-150a5 5 0 0 1-5-5z" stroke="#000" stroke-width="2" fill="#fff3d9"/><use xlink:href="#h" transform="matrix(1,0,0,1,2493.333333333333,792.565516050338) translate(21.575000000000003 17.15)"/><use xlink:href="#i" transform="matrix(1,0,0,1,2493.333333333333,792.565516050338) translate(70.475 17.15)"/><use xlink:href="#j" transform="matrix(1,0,0,1,2493.333333333333,792.565516050338) translate(80.475 17.15)"/><use xlink:href="#k" transform="matrix(1,0,0,1,2493.333333333333,792.565516050338) translate(46.05 38.75)"/><path d="M2389.33 598.17v28.16a5 5 0 0 1-5 5h-150a5 5 0 0 0-5 5V682" stroke="#000" stroke-width="2" fill="none"/><path d="M2389.33 582.9l4.64 14.27h-9.27z" stroke="#000" stroke-width="2" fill="#fff"/><path d="M2230.33 683h-2v-1.03h2z" stroke="#000" stroke-width=".05"/><path d="M1633.05 292.1a5 5 0 0 1 5-5h150a5 5 0 0 1 5 5v110a5 5 0 0 1-5 5h-150a5 5 0 0 1-5-5z" stroke="#000" stroke-width="2" fill="#ced4db"/><g><use xlink:href="#H" transform="matrix(1,0,0,1,1645.0481191583556,299.1023012326581) translate(4.099999999999994 41.4)"/><use xlink:href="#I" transform="matrix(1,0,0,1,1645.0481191583556,299.1023012326581) translate(54 41.4)"/><use xlink:href="#J" transform="matrix(1,0,0,1,1645.0481191583556,299.1023012326581) translate(117.95 41.4)"/><use xlink:href="#K" transform="matrix(1,0,0,1,1645.0481191583556,299.1023012326581) translate(10.574999999999996 63)"/><use xlink:href="#L" transform="matrix(1,0,0,1,1645.0481191583556,299.1023012326581) translate(76.525 63)"/></g><path d="M1680.1 468.23h-55.33v-2h55.33zm122.04 0H1746v-2h56.14z" stroke="#000" stroke-width=".05"/><path d="M1803.14 468.23h-1.02v-2h1.02zM1642.64 457.9l-15.76 9.33 15.76 9.32-1.02 1.73-18.67-11.05 18.67-11.04z" stroke="#000" stroke-width=".05"/><g><use xlink:href="#M" transform="matrix(1,0,0,1,1680.0981191583555,456.4339903897915) translate(0.005000000000002558 14.4)"/></g><path d="M1633.05 578.1a5 5 0 0 1 5-5h150a5 5 0 0 1 5 5v110a5 5 0 0 1-5 5h-150a5 5 0 0 1-5-5z" stroke="#1071e5" stroke-width="2" fill="#fff"/><g><use xlink:href="#N" transform="matrix(1,0,0,1,1645.0481191583556,585.1154964809294) translate(16.5 41.4)"/><use xlink:href="#O" transform="matrix(1,0,0,1,1645.0481191583556,585.1154964809294) translate(89.5 41.4)"/><use xlink:href="#P" transform="matrix(1,0,0,1,1645.0481191583556,585.1154964809294) translate(109.5 41.4)"/><use xlink:href="#Q" transform="matrix(1,0,0,1,1645.0481191583556,585.1154964809294) translate(45.55 63)"/></g><path d="M1802.14 746.54h-9.85v-2h9.84zm-19.7 0h-19.7v-2h19.7zm-118.25 0h-19.72v-2h19.7zm-29.58 0h-9.85v-2h9.85z" stroke="#1071e5" stroke-width=".05" fill="#1071e5"/><path d="M1803.14 746.54h-1.02v-2h1.02zM1642.64 736.23l-15.76 9.3 15.76 9.34-1.02 1.72-18.67-11.06 18.67-11.04z" stroke="#1071e5" stroke-width=".05" fill="#1071e5"/><g><use xlink:href="#R" transform="matrix(1,0,0,1,1670.1098475534172,734.8782756874616) translate(0 14.222222222222223)"/><use xlink:href="#S" transform="matrix(1,0,0,1,1670.1098475534172,734.8782756874616) translate(71.06172839506172 14.222222222222223)"/></g><path d="M1653.84 515.32h-12.4v-2h12.4zm148.3 0h-29.88v-2h29.88z" stroke="#3a414a" stroke-width=".05" fill="#3a414a"/><path d="M1803.14 515.32h-1.02v-2h1.02z" stroke="#3a414a" stroke-width=".05" fill="#3a414a"/><path d="M1640.45 518.96l-14.26-4.64 14.25-4.64z" fill="#fff"/><path d="M1641.45 520.33l-18.5-6 18.5-6.02zm-12.03-6l10.03 3.25v-6.52z" stroke="#3a414a" stroke-width=".05" fill="#3a414a"/><g><use xlink:href="#T" transform="matrix(1,0,0,1,1653.8382426151456,492.9865641167616) translate(12.325987654321004 14.222222222222223)"/><use xlink:href="#U" transform="matrix(1,0,0,1,1653.8382426151456,492.9865641167616) translate(45.90623456790126 14.222222222222223)"/><use xlink:href="#V" transform="matrix(1,0,0,1,1653.8382426151456,492.9865641167616) translate(91.28895061728397 14.222222222222223)"/><use xlink:href="#W" transform="matrix(1,0,0,1,1653.8382426151456,492.9865641167616) translate(0.005000000000002558 35.55555555555556)"/><use xlink:href="#X" transform="matrix(1,0,0,1,1653.8382426151456,492.9865641167616) translate(33.58524691358026 35.55555555555556)"/><use xlink:href="#Y" transform="matrix(1,0,0,1,1653.8382426151456,492.9865641167616) translate(103.60993827160496 35.55555555555556)"/></g><path d="M1593.05 216.43a6 6 0 0 1 6-6h228a6 6 0 0 1 6 6v48a6 6 0 0 1-6 6h-228a6 6 0 0 1-6-6z" stroke="#000" stroke-opacity="0" fill="#fff" fill-opacity="0"/><g><use xlink:href="#Z" transform="matrix(1,0,0,1,1598.0481191583556,215.4344839496622) translate(77.96296296296296 30.27777777777778)"/></g><defs><path d="M233-177c-1 41-23 64-60 70L243 0h-38l-65-103H63V0H30v-248c88 3 205-21 203 71zM63-129c60-2 137 13 137-47 0-61-80-42-137-45v92" id="aa"/><path d="M100-194c63 0 86 42 84 106H49c0 40 14 67 53 68 26 1 43-12 49-29l28 8c-11 28-37 45-77 45C44 4 14-33 15-96c1-61 26-98 85-98zm52 81c6-60-76-77-97-28-3 7-6 17-6 28h103" id="ab"/><path d="M135-143c-3-34-86-38-87 0 15 53 115 12 119 90S17 21 10-45l28-5c4 36 97 45 98 0-10-56-113-15-118-90-4-57 82-63 122-42 12 7 21 19 24 35" id="ac"/><path d="M100-194c62-1 85 37 85 99 1 63-27 99-86 99S16-35 15-95c0-66 28-99 85-99zM99-20c44 1 53-31 53-75 0-43-8-75-51-75s-53 32-53 75 10 74 51 75" id="ad"/><path d="M84 4C-5 8 30-112 23-190h32v120c0 31 7 50 39 49 72-2 45-101 50-169h31l1 190h-30c-1-10 1-25-2-33-11 22-28 36-60 37" id="ae"/><path d="M114-163C36-179 61-72 57 0H25l-1-190h30c1 12-1 29 2 39 6-27 23-49 58-41v29" id="af"/><path d="M96-169c-40 0-48 33-48 73s9 75 48 75c24 0 41-14 43-38l32 2c-6 37-31 61-74 61-59 0-76-41-82-99-10-93 101-131 147-64 4 7 5 14 7 22l-32 3c-4-21-16-35-41-35" id="ag"/><g id="a"><use transform="matrix(0.05,0,0,0.05,0,0)" xlink:href="#aa"/><use transform="matrix(0.05,0,0,0.05,12.950000000000001,0)" xlink:href="#ab"/><use transform="matrix(0.05,0,0,0.05,22.950000000000003,0)" xlink:href="#ac"/><use transform="matrix(0.05,0,0,0.05,31.950000000000003,0)" xlink:href="#ad"/><use transform="matrix(0.05,0,0,0.05,41.95,0)" xlink:href="#ae"/><use transform="matrix(0.05,0,0,0.05,51.95,0)" xlink:href="#af"/><use transform="matrix(0.05,0,0,0.05,57.900000000000006,0)" xlink:href="#ag"/><use transform="matrix(0.05,0,0,0.05,66.9,0)" xlink:href="#ab"/></g><path d="M240 0l2-218c-23 76-54 145-80 218h-23L58-218 59 0H30v-248h44l77 211c21-75 51-140 76-211h43V0h-30" id="ah"/><path d="M85-194c31 0 48 13 60 33l-1-100h32l1 261h-30c-2-10 0-23-3-31C134-8 116 4 85 4 32 4 16-35 15-94c0-66 23-100 70-100zm9 24c-40 0-46 34-46 75 0 40 6 74 45 74 42 0 51-32 51-76 0-42-9-74-50-73" id="ai"/><path d="M24-231v-30h32v30H24zM24 0v-190h32V0H24" id="aj"/><path d="M141-36C126-15 110 5 73 4 37 3 15-17 15-53c-1-64 63-63 125-63 3-35-9-54-41-54-24 1-41 7-42 31l-33-3c5-37 33-52 76-52 45 0 72 20 72 64v82c-1 20 7 32 28 27v20c-31 9-61-2-59-35zM48-53c0 20 12 33 32 33 41-3 63-29 60-74-43 2-92-5-92 41" id="ak"/><path d="M140-251c81 0 123 46 123 126C263-46 219 4 140 4 59 4 17-45 17-125s42-126 123-126zm0 227c63 0 89-41 89-101s-29-99-89-99c-61 0-89 39-89 99S79-25 140-24" id="al"/><path d="M115-194c53 0 69 39 70 98 0 66-23 100-70 100C84 3 66-7 56-30L54 0H23l1-261h32v101c10-23 28-34 59-34zm-8 174c40 0 45-34 45-75 0-40-5-75-45-74-42 0-51 32-51 76 0 43 10 73 51 73" id="am"/><path d="M24-231v-30h32v30H24zM-9 49c24 4 33-6 33-30v-209h32V24c2 40-23 58-65 49V49" id="an"/><path d="M59-47c-2 24 18 29 38 22v24C64 9 27 4 27-40v-127H5v-23h24l9-43h21v43h35v23H59v120" id="ao"/><g id="b"><use transform="matrix(0.05,0,0,0.05,0,0)" xlink:href="#ah"/><use transform="matrix(0.05,0,0,0.05,14.950000000000001,0)" xlink:href="#ab"/><use transform="matrix(0.05,0,0,0.05,24.950000000000003,0)" xlink:href="#ai"/><use transform="matrix(0.05,0,0,0.05,34.95,0)" xlink:href="#aj"/><use transform="matrix(0.05,0,0,0.05,38.900000000000006,0)" xlink:href="#ak"/><use transform="matrix(0.05,0,0,0.05,48.900000000000006,0)" xlink:href="#al"/><use transform="matrix(0.05,0,0,0.05,62.900000000000006,0)" xlink:href="#am"/><use transform="matrix(0.05,0,0,0.05,72.9,0)" xlink:href="#an"/><use transform="matrix(0.05,0,0,0.05,76.85000000000001,0)" xlink:href="#ab"/><use transform="matrix(0.05,0,0,0.05,86.85000000000001,0)" xlink:href="#ag"/><use transform="matrix(0.05,0,0,0.05,95.85000000000001,0)" xlink:href="#ao"/></g><path fill="#333" d="M231 0h-52l-39-155L100 0H48L-1-190h46L77-45c9-52 24-97 36-145h53l37 145 32-145h46" id="ap"/><path fill="#333" d="M110-194c64 0 96 36 96 99 0 64-35 99-97 99-61 0-95-36-95-99 0-62 34-99 96-99zm-1 164c35 0 45-28 45-65 0-40-10-65-43-65-34 0-45 26-45 65 0 36 10 65 43 65" id="aq"/><path fill="#333" d="M135-150c-39-12-60 13-60 57V0H25l-1-190h47c2 13-1 29 3 40 6-28 27-53 61-41v41" id="ar"/><path fill="#333" d="M147 0L96-86 75-71V0H25v-261h50v150l67-79h53l-66 74L201 0h-54" id="as"/><g id="c"><use transform="matrix(0.04938271604938272,0,0,0.04938271604938272,0,0)" xlink:href="#ap"/><use transform="matrix(0.04938271604938272,0,0,0.04938271604938272,13.827160493827162,0)" xlink:href="#aq"/><use transform="matrix(0.04938271604938272,0,0,0.04938271604938272,24.641975308641975,0)" xlink:href="#ar"/><use transform="matrix(0.04938271604938272,0,0,0.04938271604938272,31.555555555555557,0)" xlink:href="#as"/></g><path fill="#333" d="M185-48c-13 30-37 53-82 52C43 2 14-33 14-96s30-98 90-98c62 0 83 45 84 108H66c0 31 8 55 39 56 18 0 30-7 34-22zm-45-69c5-46-57-63-70-21-2 6-4 13-4 21h74" id="at"/><path fill="#333" d="M144 0l-44-69L55 0H2l70-98-66-92h53l41 62 40-62h54l-67 91 71 99h-54" id="au"/><path fill="#333" d="M133-34C117-15 103 5 69 4 32 3 11-16 11-54c-1-60 55-63 116-61 1-26-3-47-28-47-18 1-26 9-28 27l-52-2c7-38 36-58 82-57s74 22 75 68l1 82c-1 14 12 18 25 15v27c-30 8-71 5-69-32zm-48 3c29 0 43-24 42-57-32 0-66-3-65 30 0 17 8 27 23 27" id="av"/><path fill="#333" d="M220-157c-53 9-28 100-34 157h-49v-107c1-27-5-49-29-50C55-147 81-57 75 0H25l-1-190h47c2 12-1 28 3 38 10-53 101-56 108 0 13-22 24-43 59-42 82 1 51 116 57 194h-49v-107c-1-25-5-48-29-50" id="aw"/><path fill="#333" d="M135-194c53 0 70 44 70 98 0 56-19 98-73 100-31 1-45-17-59-34 3 33 2 69 2 105H25l-1-265h48c2 10 0 23 3 31 11-24 29-35 60-35zM114-30c33 0 39-31 40-66 0-38-9-64-40-64-56 0-55 130 0 130" id="ax"/><path fill="#333" d="M25 0v-261h50V0H25" id="ay"/><g id="d"><use transform="matrix(0.04938271604938272,0,0,0.04938271604938272,0,0)" xlink:href="#at"/><use transform="matrix(0.04938271604938272,0,0,0.04938271604938272,9.876543209876544,0)" xlink:href="#au"/><use transform="matrix(0.04938271604938272,0,0,0.04938271604938272,19.75308641975309,0)" xlink:href="#av"/><use transform="matrix(0.04938271604938272,0,0,0.04938271604938272,29.629629629629633,0)" xlink:href="#aw"/><use transform="matrix(0.04938271604938272,0,0,0.04938271604938272,45.4320987654321,0)" xlink:href="#ax"/><use transform="matrix(0.04938271604938272,0,0,0.04938271604938272,56.24691358024692,0)" xlink:href="#ay"/><use transform="matrix(0.04938271604938272,0,0,0.04938271604938272,61.18518518518519,0)" xlink:href="#at"/></g><g id="e"><use transform="matrix(0.04938271604938272,0,0,0.04938271604938272,0,0)" xlink:href="#at"/><use transform="matrix(0.04938271604938272,0,0,0.04938271604938272,9.876543209876544,0)" xlink:href="#au"/><use transform="matrix(0.04938271604938272,0,0,0.04938271604938272,19.75308641975309,0)" xlink:href="#av"/><use transform="matrix(0.04938271604938272,0,0,0.04938271604938272,29.629629629629633,0)" xlink:href="#aw"/><use transform="matrix(0.04938271604938272,0,0,0.04938271604938272,45.4320987654321,0)" xlink:href="#ax"/><use transform="matrix(0.04938271604938272,0,0,0.04938271604938272,56.24691358024692,0)" xlink:href="#ay"/><use transform="matrix(0.04938271604938272,0,0,0.04938271604938272,61.18518518518519,0)" xlink:href="#at"/></g><path fill="#333" d="M121-226c-27-7-43 5-38 36h38v33H83V0H34v-157H6v-33h28c-9-59 32-81 87-68v32" id="az"/><g id="f"><use transform="matrix(0.04938271604938272,0,0,0.04938271604938272,0,0)" xlink:href="#aq"/><use transform="matrix(0.04938271604938272,0,0,0.04938271604938272,10.814814814814815,0)" xlink:href="#az"/></g><g id="g"><use transform="matrix(0.04938271604938272,0,0,0.04938271604938272,0,0)" xlink:href="#ap"/><use transform="matrix(0.04938271604938272,0,0,0.04938271604938272,13.827160493827162,0)" xlink:href="#aq"/><use transform="matrix(0.04938271604938272,0,0,0.04938271604938272,24.641975308641975,0)" xlink:href="#ar"/><use transform="matrix(0.04938271604938272,0,0,0.04938271604938272,31.555555555555557,0)" xlink:href="#as"/></g><path d="M117-194c89-4 53 116 60 194h-32v-121c0-31-8-49-39-48C34-167 62-67 57 0H25l-1-190h30c1 10-1 24 2 32 11-22 29-35 61-36" id="aA"/><path d="M177-190C167-65 218 103 67 71c-23-6-38-20-44-43l32-5c15 47 100 32 89-28v-30C133-14 115 1 83 1 29 1 15-40 15-95c0-56 16-97 71-98 29-1 48 16 59 35 1-10 0-23 2-32h30zM94-22c36 0 50-32 50-73 0-42-14-75-50-75-39 0-46 34-46 75s6 73 46 73" id="aB"/><g id="h"><use transform="matrix(0.05,0,0,0.05,0,0)" xlink:href="#ac"/><use transform="matrix(0.05,0,0,0.05,9,0)" xlink:href="#ao"/><use transform="matrix(0.05,0,0,0.05,14,0)" xlink:href="#af"/><use transform="matrix(0.05,0,0,0.05,19.95,0)" xlink:href="#aj"/><use transform="matrix(0.05,0,0,0.05,23.9,0)" xlink:href="#aA"/><use transform="matrix(0.05,0,0,0.05,33.9,0)" xlink:href="#aB"/></g><path d="M0 4l72-265h28L28 4H0" id="aC"/><use transform="matrix(0.05,0,0,0.05,0,0)" xlink:href="#aC" id="i"/><path d="M24 0v-261h32V0H24" id="aD"/><g id="j"><use transform="matrix(0.05,0,0,0.05,0,0)" xlink:href="#aD"/><use transform="matrix(0.05,0,0,0.05,3.95,0)" xlink:href="#ak"/><use transform="matrix(0.05,0,0,0.05,13.949999999999998,0)" xlink:href="#aA"/><use transform="matrix(0.05,0,0,0.05,23.95,0)" xlink:href="#aB"/></g><g id="k"><use transform="matrix(0.05,0,0,0.05,0,0)" xlink:href="#ac"/><use transform="matrix(0.05,0,0,0.05,9,0)" xlink:href="#ao"/><use transform="matrix(0.05,0,0,0.05,14,0)" xlink:href="#af"/><use transform="matrix(0.05,0,0,0.05,19.95,0)" xlink:href="#aj"/><use transform="matrix(0.05,0,0,0.05,23.9,0)" xlink:href="#aA"/><use transform="matrix(0.05,0,0,0.05,33.9,0)" xlink:href="#aB"/></g><path fill="#333" d="M135-194c87-1 58 113 63 194h-50c-7-57 23-157-34-157-59 0-34 97-39 157H25l-1-190h47c2 12-1 28 3 38 12-26 28-41 61-42" id="aE"/><g id="l"><use transform="matrix(0.04938271604938272,0,0,0.04938271604938272,0,0)" xlink:href="#aE"/><use transform="matrix(0.04938271604938272,0,0,0.04938271604938272,10.814814814814815,0)" xlink:href="#av"/><use transform="matrix(0.04938271604938272,0,0,0.04938271604938272,20.69135802469136,0)" xlink:href="#aw"/><use transform="matrix(0.04938271604938272,0,0,0.04938271604938272,36.49382716049383,0)" xlink:href="#at"/></g><path fill="#333" d="M4 7l51-268h42L46 7H4" id="aF"/><use transform="matrix(0.04938271604938272,0,0,0.04938271604938272,0,0)" xlink:href="#aF" id="m"/><path fill="#333" d="M88-194c31-1 46 15 58 34l-1-101h50l1 261h-48c-2-10 0-23-3-31C134-8 116 4 84 4 32 4 16-41 15-95c0-56 19-97 73-99zm17 164c33 0 40-30 41-66 1-37-9-64-41-64s-38 30-39 65c0 43 13 65 39 65" id="aG"/><path fill="#333" d="M137-138c1-29-70-34-71-4 15 46 118 7 119 86 1 83-164 76-172 9l43-7c4 19 20 25 44 25 33 8 57-30 24-41C81-84 22-81 20-136c-2-80 154-74 161-7" id="aH"/><path fill="#333" d="M190-63c-7 42-38 67-86 67-59 0-84-38-90-98-12-110 154-137 174-36l-49 2c-2-19-15-32-35-32-30 0-35 28-38 64-6 74 65 87 74 30" id="aI"/><path fill="#333" d="M25-224v-37h50v37H25zM25 0v-190h50V0H25" id="aJ"/><path fill="#333" d="M115-3C79 11 28 4 28-45v-112H4v-33h27l15-45h31v45h36v33H77v99c-1 23 16 31 38 25v30" id="aK"/><g id="n"><use transform="matrix(0.04938271604938272,0,0,0.04938271604938272,0,0)" xlink:href="#aG"/><use transform="matrix(0.04938271604938272,0,0,0.04938271604938272,10.814814814814815,0)" xlink:href="#at"/><use transform="matrix(0.04938271604938272,0,0,0.04938271604938272,20.69135802469136,0)" xlink:href="#aH"/><use transform="matrix(0.04938271604938272,0,0,0.04938271604938272,30.567901234567906,0)" xlink:href="#aI"/><use transform="matrix(0.04938271604938272,0,0,0.04938271604938272,40.44444444444445,0)" xlink:href="#ar"/><use transform="matrix(0.04938271604938272,0,0,0.04938271604938272,47.35802469135803,0)" xlink:href="#aJ"/><use transform="matrix(0.04938271604938272,0,0,0.04938271604938272,52.2962962962963,0)" xlink:href="#ax"/><use transform="matrix(0.04938271604938272,0,0,0.04938271604938272,63.111111111111114,0)" xlink:href="#aK"/><use transform="matrix(0.04938271604938272,0,0,0.04938271604938272,68.98765432098766,0)" xlink:href="#aJ"/><use transform="matrix(0.04938271604938272,0,0,0.04938271604938272,73.92592592592592,0)" xlink:href="#aq"/><use transform="matrix(0.04938271604938272,0,0,0.04938271604938272,84.74074074074073,0)" xlink:href="#aE"/></g><path d="M179-190L93 31C79 59 56 82 12 73V49c39 6 53-20 64-50L1-190h34L92-34l54-156h33" id="aL"/><g id="o"><use transform="matrix(0.05,0,0,0.05,0,0)" xlink:href="#ak"/><use transform="matrix(0.05,0,0,0.05,10,0)" xlink:href="#aA"/><use transform="matrix(0.05,0,0,0.05,20,0)" xlink:href="#aL"/></g><path d="M232-93c-1 65-40 97-104 97C67 4 28-28 28-90v-158h33c8 89-33 224 67 224 102 0 64-133 71-224h33v155" id="aM"/><path d="M33 0v-248h34V0H33" id="aN"/><g id="p"><use transform="matrix(0.05,0,0,0.05,0,0)" xlink:href="#aM"/><use transform="matrix(0.05,0,0,0.05,12.950000000000001,0)" xlink:href="#aa"/><use transform="matrix(0.05,0,0,0.05,25.900000000000002,0)" xlink:href="#aN"/></g><g id="q"><use transform="matrix(0.04938271604938272,0,0,0.04938271604938272,0,0)" xlink:href="#aI"/><use transform="matrix(0.04938271604938272,0,0,0.04938271604938272,9.876543209876544,0)" xlink:href="#aq"/><use transform="matrix(0.04938271604938272,0,0,0.04938271604938272,20.69135802469136,0)" xlink:href="#aE"/><use transform="matrix(0.04938271604938272,0,0,0.04938271604938272,31.506172839506174,0)" xlink:href="#aK"/><use transform="matrix(0.04938271604938272,0,0,0.04938271604938272,37.38271604938272,0)" xlink:href="#at"/><use transform="matrix(0.04938271604938272,0,0,0.04938271604938272,47.25925925925927,0)" xlink:href="#aE"/><use transform="matrix(0.04938271604938272,0,0,0.04938271604938272,58.074074074074076,0)" xlink:href="#aK"/></g><path fill="#333" d="M238-95c0 69-44 99-111 99C63 4 22-25 22-93v-155h51v151c-1 38 19 59 55 60 90 1 49-130 58-211h52v153" id="aO"/><g id="r"><use transform="matrix(0.04938271604938272,0,0,0.04938271604938272,0,0)" xlink:href="#aO"/><use transform="matrix(0.04938271604938272,0,0,0.04938271604938272,12.790123456790125,0)" xlink:href="#ar"/><use transform="matrix(0.04938271604938272,0,0,0.04938271604938272,19.703703703703706,0)" xlink:href="#ay"/></g><g id="s"><use transform="matrix(0.05,0,0,0.05,0,0)" xlink:href="#ac"/><use transform="matrix(0.05,0,0,0.05,9,0)" xlink:href="#ao"/><use transform="matrix(0.05,0,0,0.05,14,0)" xlink:href="#af"/><use transform="matrix(0.05,0,0,0.05,19.95,0)" xlink:href="#aj"/><use transform="matrix(0.05,0,0,0.05,23.9,0)" xlink:href="#aA"/><use transform="matrix(0.05,0,0,0.05,33.9,0)" xlink:href="#aB"/></g><path fill="#333" d="M195-6C206 82 75 100 31 46c-4-6-6-13-8-21l49-6c3 16 16 24 34 25 40 0 42-37 40-79-11 22-30 35-61 35-53 0-70-43-70-97 0-56 18-96 73-97 30 0 46 14 59 34l2-30h47zm-90-29c32 0 41-27 41-63 0-35-9-62-40-62-32 0-39 29-40 63 0 36 9 62 39 62" id="aP"/><g id="t"><use transform="matrix(0.04938271604938272,0,0,0.04938271604938272,0,0)" xlink:href="#at"/><use transform="matrix(0.04938271604938272,0,0,0.04938271604938272,9.876543209876544,0)" xlink:href="#aE"/><use transform="matrix(0.04938271604938272,0,0,0.04938271604938272,20.69135802469136,0)" xlink:href="#aI"/><use transform="matrix(0.04938271604938272,0,0,0.04938271604938272,30.567901234567906,0)" xlink:href="#aq"/><use transform="matrix(0.04938271604938272,0,0,0.04938271604938272,41.38271604938272,0)" xlink:href="#aG"/><use transform="matrix(0.04938271604938272,0,0,0.04938271604938272,52.19753086419754,0)" xlink:href="#aJ"/><use transform="matrix(0.04938271604938272,0,0,0.04938271604938272,57.135802469135804,0)" xlink:href="#aE"/><use transform="matrix(0.04938271604938272,0,0,0.04938271604938272,67.95061728395062,0)" xlink:href="#aP"/></g><g id="u"><use transform="matrix(0.04938271604938272,0,0,0.04938271604938272,0,0)" xlink:href="#az"/><use transform="matrix(0.04938271604938272,0,0,0.04938271604938272,5.8765432098765435,0)" xlink:href="#aq"/><use transform="matrix(0.04938271604938272,0,0,0.04938271604938272,16.691358024691358,0)" xlink:href="#ar"/><use transform="matrix(0.04938271604938272,0,0,0.04938271604938272,23.604938271604937,0)" xlink:href="#aw"/><use transform="matrix(0.04938271604938272,0,0,0.04938271604938272,39.407407407407405,0)" xlink:href="#av"/><use transform="matrix(0.04938271604938272,0,0,0.04938271604938272,49.28395061728395,0)" xlink:href="#aK"/></g><use transform="matrix(0.04938271604938272,0,0,0.04938271604938272,0,0)" xlink:href="#aF" id="v"/><g id="w"><use transform="matrix(0.04938271604938272,0,0,0.04938271604938272,0,0)" xlink:href="#aK"/><use transform="matrix(0.04938271604938272,0,0,0.04938271604938272,5.8765432098765435,0)" xlink:href="#at"/><use transform="matrix(0.04938271604938272,0,0,0.04938271604938272,15.753086419753087,0)" xlink:href="#au"/><use transform="matrix(0.04938271604938272,0,0,0.04938271604938272,25.629629629629633,0)" xlink:href="#aK"/></g><path d="M212-179c-10-28-35-45-73-45-59 0-87 40-87 99 0 60 29 101 89 101 43 0 62-24 78-52l27 14C228-24 195 4 139 4 59 4 22-46 18-125c-6-104 99-153 187-111 19 9 31 26 39 46" id="aQ"/><path d="M115-194c55 1 70 41 70 98S169 2 115 4C84 4 66-9 55-30l1 105H24l-1-265h31l2 30c10-21 28-34 59-34zm-8 174c40 0 45-34 45-75s-6-73-45-74c-42 0-51 32-51 76 0 43 10 73 51 73" id="aR"/><g id="x"><use transform="matrix(0.05,0,0,0.05,0,0)" xlink:href="#aQ"/><use transform="matrix(0.05,0,0,0.05,12.950000000000001,0)" xlink:href="#ad"/><use transform="matrix(0.05,0,0,0.05,22.950000000000003,0)" xlink:href="#aA"/><use transform="matrix(0.05,0,0,0.05,32.95,0)" xlink:href="#ag"/><use transform="matrix(0.05,0,0,0.05,41.95,0)" xlink:href="#ab"/><use transform="matrix(0.05,0,0,0.05,51.95,0)" xlink:href="#aR"/><use transform="matrix(0.05,0,0,0.05,61.95,0)" xlink:href="#ao"/></g><path fill="#333" d="M114-157C55-157 80-60 75 0H25v-261h50l-1 109c12-26 28-41 61-42 86-1 58 113 63 194h-50c-7-57 23-157-34-157" id="aS"/><g id="y"><use transform="matrix(0.04938271604938272,0,0,0.04938271604938272,0,0)" xlink:href="#aS"/><use transform="matrix(0.04938271604938272,0,0,0.04938271604938272,10.814814814814815,0)" xlink:href="#av"/><use transform="matrix(0.04938271604938272,0,0,0.04938271604938272,20.69135802469136,0)" xlink:href="#aG"/></g><g id="z"><use transform="matrix(0.04938271604938272,0,0,0.04938271604938272,0,0)" xlink:href="#ar"/><use transform="matrix(0.04938271604938272,0,0,0.04938271604938272,6.913580246913581,0)" xlink:href="#aq"/><use transform="matrix(0.04938271604938272,0,0,0.04938271604938272,17.728395061728396,0)" xlink:href="#ay"/><use transform="matrix(0.04938271604938272,0,0,0.04938271604938272,22.666666666666668,0)" xlink:href="#at"/></g><path fill="#1071e5" d="M212-179c-10-28-35-45-73-45-59 0-87 40-87 99 0 60 29 101 89 101 43 0 62-24 78-52l27 14C228-24 195 4 139 4 59 4 22-46 18-125c-6-104 99-153 187-111 19 9 31 26 39 46" id="aT"/><path fill="#1071e5" d="M141-36C126-15 110 5 73 4 37 3 15-17 15-53c-1-64 63-63 125-63 3-35-9-54-41-54-24 1-41 7-42 31l-33-3c5-37 33-52 76-52 45 0 72 20 72 64v82c-1 20 7 32 28 27v20c-31 9-61-2-59-35zM48-53c0 20 12 33 32 33 41-3 63-29 60-74-43 2-92-5-92 41" id="aU"/><path fill="#1071e5" d="M117-194c89-4 53 116 60 194h-32v-121c0-31-8-49-39-48C34-167 62-67 57 0H25l-1-190h30c1 10-1 24 2 32 11-22 29-35 61-36" id="aV"/><path fill="#1071e5" d="M100-194c62-1 85 37 85 99 1 63-27 99-86 99S16-35 15-95c0-66 28-99 85-99zM99-20c44 1 53-31 53-75 0-43-8-75-51-75s-53 32-53 75 10 74 51 75" id="aW"/><path fill="#1071e5" d="M24-231v-30h32v30H24zM24 0v-190h32V0H24" id="aX"/><path fill="#1071e5" d="M96-169c-40 0-48 33-48 73s9 75 48 75c24 0 41-14 43-38l32 2c-6 37-31 61-74 61-59 0-76-41-82-99-10-93 101-131 147-64 4 7 5 14 7 22l-32 3c-4-21-16-35-41-35" id="aY"/><path fill="#1071e5" d="M24 0v-261h32V0H24" id="aZ"/><g id="A"><use transform="matrix(0.05,0,0,0.05,0,0)" xlink:href="#aT"/><use transform="matrix(0.05,0,0,0.05,12.950000000000001,0)" xlink:href="#aU"/><use transform="matrix(0.05,0,0,0.05,22.950000000000003,0)" xlink:href="#aV"/><use transform="matrix(0.05,0,0,0.05,32.95,0)" xlink:href="#aW"/><use transform="matrix(0.05,0,0,0.05,42.95,0)" xlink:href="#aV"/><use transform="matrix(0.05,0,0,0.05,52.95,0)" xlink:href="#aX"/><use transform="matrix(0.05,0,0,0.05,56.900000000000006,0)" xlink:href="#aY"/><use transform="matrix(0.05,0,0,0.05,65.9,0)" xlink:href="#aU"/><use transform="matrix(0.05,0,0,0.05,75.9,0)" xlink:href="#aZ"/></g><path fill="#1071e5" d="M30 0v-248h187v28H63v79h144v27H63v87h162V0H30" id="ba"/><path fill="#1071e5" d="M141 0L90-78 38 0H4l68-98-65-92h35l48 74 47-74h35l-64 92 68 98h-35" id="bb"/><path fill="#1071e5" d="M210-169c-67 3-38 105-44 169h-31v-121c0-29-5-50-35-48C34-165 62-65 56 0H25l-1-190h30c1 10-1 24 2 32 10-44 99-50 107 0 11-21 27-35 58-36 85-2 47 119 55 194h-31v-121c0-29-5-49-35-48" id="bc"/><path fill="#1071e5" d="M115-194c55 1 70 41 70 98S169 2 115 4C84 4 66-9 55-30l1 105H24l-1-265h31l2 30c10-21 28-34 59-34zm-8 174c40 0 45-34 45-75s-6-73-45-74c-42 0-51 32-51 76 0 43 10 73 51 73" id="bd"/><path fill="#1071e5" d="M100-194c63 0 86 42 84 106H49c0 40 14 67 53 68 26 1 43-12 49-29l28 8c-11 28-37 45-77 45C44 4 14-33 15-96c1-61 26-98 85-98zm52 81c6-60-76-77-97-28-3 7-6 17-6 28h103" id="be"/><g id="B"><use transform="matrix(0.05,0,0,0.05,0,0)" xlink:href="#ba"/><use transform="matrix(0.05,0,0,0.05,12,0)" xlink:href="#bb"/><use transform="matrix(0.05,0,0,0.05,21,0)" xlink:href="#aU"/><use transform="matrix(0.05,0,0,0.05,31,0)" xlink:href="#bc"/><use transform="matrix(0.05,0,0,0.05,45.95,0)" xlink:href="#bd"/><use transform="matrix(0.05,0,0,0.05,55.95,0)" xlink:href="#aZ"/><use transform="matrix(0.05,0,0,0.05,59.900000000000006,0)" xlink:href="#be"/></g><path fill="#1071e5" d="M33 0v-248h34V0H33" id="bf"/><path fill="#1071e5" d="M59-47c-2 24 18 29 38 22v24C64 9 27 4 27-40v-127H5v-23h24l9-43h21v43h35v23H59v120" id="bg"/><g id="C"><use transform="matrix(0.05,0,0,0.05,0,0)" xlink:href="#bf"/><use transform="matrix(0.05,0,0,0.05,5,0)" xlink:href="#bc"/><use transform="matrix(0.05,0,0,0.05,19.950000000000003,0)" xlink:href="#bd"/><use transform="matrix(0.05,0,0,0.05,29.950000000000003,0)" xlink:href="#aZ"/><use transform="matrix(0.05,0,0,0.05,33.900000000000006,0)" xlink:href="#be"/><use transform="matrix(0.05,0,0,0.05,43.900000000000006,0)" xlink:href="#bc"/><use transform="matrix(0.05,0,0,0.05,58.85,0)" xlink:href="#be"/><use transform="matrix(0.05,0,0,0.05,68.85000000000001,0)" xlink:href="#aV"/><use transform="matrix(0.05,0,0,0.05,78.85000000000001,0)" xlink:href="#bg"/><use transform="matrix(0.05,0,0,0.05,83.85000000000001,0)" xlink:href="#aU"/><use transform="matrix(0.05,0,0,0.05,93.85000000000001,0)" xlink:href="#bg"/><use transform="matrix(0.05,0,0,0.05,98.85000000000001,0)" xlink:href="#aX"/><use transform="matrix(0.05,0,0,0.05,102.80000000000001,0)" xlink:href="#aW"/><use transform="matrix(0.05,0,0,0.05,112.80000000000001,0)" xlink:href="#aV"/></g><path d="M210-169c-67 3-38 105-44 169h-31v-121c0-29-5-50-35-48C34-165 62-65 56 0H25l-1-190h30c1 10-1 24 2 32 10-44 99-50 107 0 11-21 27-35 58-36 85-2 47 119 55 194h-31v-121c0-29-5-49-35-48" id="bh"/><g id="D"><use transform="matrix(0.05,0,0,0.05,0,0)" xlink:href="#ai"/><use transform="matrix(0.05,0,0,0.05,10,0)" xlink:href="#ab"/><use transform="matrix(0.05,0,0,0.05,20,0)" xlink:href="#ag"/><use transform="matrix(0.05,0,0,0.05,29,0)" xlink:href="#aj"/><use transform="matrix(0.05,0,0,0.05,32.95,0)" xlink:href="#bh"/><use transform="matrix(0.05,0,0,0.05,47.900000000000006,0)" xlink:href="#ak"/><use transform="matrix(0.05,0,0,0.05,57.900000000000006,0)" xlink:href="#aD"/></g><g id="E"><use transform="matrix(0.04938271604938272,0,0,0.04938271604938272,0,0)" xlink:href="#aq"/><use transform="matrix(0.04938271604938272,0,0,0.04938271604938272,10.814814814814815,0)" xlink:href="#ar"/><use transform="matrix(0.04938271604938272,0,0,0.04938271604938272,17.728395061728396,0)" xlink:href="#aG"/><use transform="matrix(0.04938271604938272,0,0,0.04938271604938272,28.543209876543205,0)" xlink:href="#at"/><use transform="matrix(0.04938271604938272,0,0,0.04938271604938272,38.41975308641975,0)" xlink:href="#ar"/></g><g id="F"><use transform="matrix(0.05,0,0,0.05,0,0)" xlink:href="#aN"/><use transform="matrix(0.05,0,0,0.05,5,0)" xlink:href="#bh"/><use transform="matrix(0.05,0,0,0.05,19.950000000000003,0)" xlink:href="#ak"/><use transform="matrix(0.05,0,0,0.05,29.950000000000003,0)" xlink:href="#aB"/><use transform="matrix(0.05,0,0,0.05,39.95,0)" xlink:href="#ab"/><use transform="matrix(0.05,0,0,0.05,49.95,0)" xlink:href="#al"/><use transform="matrix(0.05,0,0,0.05,63.95,0)" xlink:href="#am"/><use transform="matrix(0.05,0,0,0.05,73.95,0)" xlink:href="#an"/><use transform="matrix(0.05,0,0,0.05,77.9,0)" xlink:href="#ab"/><use transform="matrix(0.05,0,0,0.05,87.9,0)" xlink:href="#ag"/><use transform="matrix(0.05,0,0,0.05,96.9,0)" xlink:href="#ao"/></g><g id="G"><use transform="matrix(0.04938271604938272,0,0,0.04938271604938272,0,0)" xlink:href="#aI"/><use transform="matrix(0.04938271604938272,0,0,0.04938271604938272,9.876543209876544,0)" xlink:href="#av"/><use transform="matrix(0.04938271604938272,0,0,0.04938271604938272,19.75308641975309,0)" xlink:href="#ax"/><use transform="matrix(0.04938271604938272,0,0,0.04938271604938272,30.567901234567906,0)" xlink:href="#aK"/><use transform="matrix(0.04938271604938272,0,0,0.04938271604938272,36.44444444444445,0)" xlink:href="#aJ"/><use transform="matrix(0.04938271604938272,0,0,0.04938271604938272,41.38271604938272,0)" xlink:href="#aq"/><use transform="matrix(0.04938271604938272,0,0,0.04938271604938272,52.19753086419754,0)" xlink:href="#aE"/></g><g id="H"><use transform="matrix(0.05,0,0,0.05,0,0)" xlink:href="#aQ"/><use transform="matrix(0.05,0,0,0.05,12.950000000000001,0)" xlink:href="#aD"/><use transform="matrix(0.05,0,0,0.05,16.900000000000002,0)" xlink:href="#ak"/><use transform="matrix(0.05,0,0,0.05,26.900000000000002,0)" xlink:href="#ac"/><use transform="matrix(0.05,0,0,0.05,35.900000000000006,0)" xlink:href="#ac"/></g><path d="M101-234c-31-9-42 10-38 44h38v23H63V0H32v-167H5v-23h27c-7-52 17-82 69-68v24" id="bi"/><g id="I"><use transform="matrix(0.05,0,0,0.05,0,0)" xlink:href="#ai"/><use transform="matrix(0.05,0,0,0.05,10,0)" xlink:href="#ab"/><use transform="matrix(0.05,0,0,0.05,20,0)" xlink:href="#bi"/><use transform="matrix(0.05,0,0,0.05,25,0)" xlink:href="#aj"/><use transform="matrix(0.05,0,0,0.05,28.950000000000003,0)" xlink:href="#aA"/><use transform="matrix(0.05,0,0,0.05,38.95,0)" xlink:href="#ab"/><use transform="matrix(0.05,0,0,0.05,48.95,0)" xlink:href="#ai"/></g><g id="J"><use transform="matrix(0.05,0,0,0.05,0,0)" xlink:href="#aj"/><use transform="matrix(0.05,0,0,0.05,3.95,0)" xlink:href="#aA"/></g><path d="M106-169C34-169 62-67 57 0H25v-261h32l-1 103c12-21 28-36 61-36 89 0 53 116 60 194h-32v-121c2-32-8-49-39-48" id="bj"/><g id="K"><use transform="matrix(0.05,0,0,0.05,0,0)" xlink:href="#ak"/><use transform="matrix(0.05,0,0,0.05,10,0)" xlink:href="#aA"/><use transform="matrix(0.05,0,0,0.05,20,0)" xlink:href="#ad"/><use transform="matrix(0.05,0,0,0.05,30,0)" xlink:href="#ao"/><use transform="matrix(0.05,0,0,0.05,35,0)" xlink:href="#bj"/><use transform="matrix(0.05,0,0,0.05,45,0)" xlink:href="#ab"/><use transform="matrix(0.05,0,0,0.05,55,0)" xlink:href="#af"/></g><g id="L"><use transform="matrix(0.05,0,0,0.05,0,0)" xlink:href="#bh"/><use transform="matrix(0.05,0,0,0.05,14.950000000000001,0)" xlink:href="#ad"/><use transform="matrix(0.05,0,0,0.05,24.950000000000003,0)" xlink:href="#ai"/><use transform="matrix(0.05,0,0,0.05,34.95,0)" xlink:href="#ab"/><use transform="matrix(0.05,0,0,0.05,44.95,0)" xlink:href="#aD"/></g><g id="M"><use transform="matrix(0.05,0,0,0.05,0,0)" xlink:href="#aR"/><use transform="matrix(0.05,0,0,0.05,10,0)" xlink:href="#af"/><use transform="matrix(0.05,0,0,0.05,15.949999999999998,0)" xlink:href="#ad"/><use transform="matrix(0.05,0,0,0.05,25.950000000000003,0)" xlink:href="#aR"/><use transform="matrix(0.05,0,0,0.05,35.95,0)" xlink:href="#ab"/><use transform="matrix(0.05,0,0,0.05,45.95,0)" xlink:href="#af"/><use transform="matrix(0.05,0,0,0.05,51.900000000000006,0)" xlink:href="#ao"/><use transform="matrix(0.05,0,0,0.05,56.900000000000006,0)" xlink:href="#aL"/></g><path fill="#1071e5" d="M135-143c-3-34-86-38-87 0 15 53 115 12 119 90S17 21 10-45l28-5c4 36 97 45 98 0-10-56-113-15-118-90-4-57 82-63 122-42 12 7 21 19 24 35" id="bk"/><g id="N"><use transform="matrix(0.05,0,0,0.05,0,0)" xlink:href="#bf"/><use transform="matrix(0.05,0,0,0.05,5,0)" xlink:href="#aV"/><use transform="matrix(0.05,0,0,0.05,15,0)" xlink:href="#bk"/><use transform="matrix(0.05,0,0,0.05,24,0)" xlink:href="#bg"/><use transform="matrix(0.05,0,0,0.05,29,0)" xlink:href="#aU"/><use transform="matrix(0.05,0,0,0.05,39,0)" xlink:href="#aV"/><use transform="matrix(0.05,0,0,0.05,49,0)" xlink:href="#aY"/><use transform="matrix(0.05,0,0,0.05,58,0)" xlink:href="#be"/></g><path fill="#1071e5" d="M101-234c-31-9-42 10-38 44h38v23H63V0H32v-167H5v-23h27c-7-52 17-82 69-68v24" id="bl"/><g id="O"><use transform="matrix(0.05,0,0,0.05,0,0)" xlink:href="#aW"/><use transform="matrix(0.05,0,0,0.05,10,0)" xlink:href="#bl"/></g><use transform="matrix(0.05,0,0,0.05,0,0)" xlink:href="#aU" id="P"/><g id="Q"><use transform="matrix(0.05,0,0,0.05,0,0)" xlink:href="#aT"/><use transform="matrix(0.05,0,0,0.05,12.950000000000001,0)" xlink:href="#aZ"/><use transform="matrix(0.05,0,0,0.05,16.900000000000002,0)" xlink:href="#aU"/><use transform="matrix(0.05,0,0,0.05,26.900000000000002,0)" xlink:href="#bk"/><use transform="matrix(0.05,0,0,0.05,35.900000000000006,0)" xlink:href="#bk"/></g><g id="R"><use transform="matrix(0.04938271604938272,0,0,0.04938271604938272,0,0)" xlink:href="#aX"/><use transform="matrix(0.04938271604938272,0,0,0.04938271604938272,3.901234567901235,0)" xlink:href="#aV"/><use transform="matrix(0.04938271604938272,0,0,0.04938271604938272,13.777777777777779,0)" xlink:href="#bk"/><use transform="matrix(0.04938271604938272,0,0,0.04938271604938272,22.666666666666668,0)" xlink:href="#bg"/><use transform="matrix(0.04938271604938272,0,0,0.04938271604938272,27.60493827160494,0)" xlink:href="#aU"/><use transform="matrix(0.04938271604938272,0,0,0.04938271604938272,37.48148148148148,0)" xlink:href="#aV"/><use transform="matrix(0.04938271604938272,0,0,0.04938271604938272,47.358024691358025,0)" xlink:href="#aY"/><use transform="matrix(0.04938271604938272,0,0,0.04938271604938272,56.246913580246904,0)" xlink:href="#be"/></g><g id="S"><use transform="matrix(0.04938271604938272,0,0,0.04938271604938272,0,0)" xlink:href="#aW"/><use transform="matrix(0.04938271604938272,0,0,0.04938271604938272,9.876543209876544,0)" xlink:href="#bl"/></g><path fill="#333" d="M135-143c-3-34-86-38-87 0 15 53 115 12 119 90S17 21 10-45l28-5c4 36 97 45 98 0-10-56-113-15-118-90-4-57 82-63 122-42 12 7 21 19 24 35" id="bm"/><path fill="#333" d="M84 4C-5 8 30-112 23-190h32v120c0 31 7 50 39 49 72-2 45-101 50-169h31l1 190h-30c-1-10 1-25-2-33-11 22-28 36-60 37" id="bn"/><path fill="#333" d="M115-194c53 0 69 39 70 98 0 66-23 100-70 100C84 3 66-7 56-30L54 0H23l1-261h32v101c10-23 28-34 59-34zm-8 174c40 0 45-34 45-75 0-40-5-75-45-74-42 0-51 32-51 76 0 43 10 73 51 73" id="bo"/><g id="T"><use transform="matrix(0.04938271604938272,0,0,0.04938271604938272,0,0)" xlink:href="#bm"/><use transform="matrix(0.04938271604938272,0,0,0.04938271604938272,8.88888888888889,0)" xlink:href="#bn"/><use transform="matrix(0.04938271604938272,0,0,0.04938271604938272,18.765432098765434,0)" xlink:href="#bo"/></g><path fill="#333" d="M96-169c-40 0-48 33-48 73s9 75 48 75c24 0 41-14 43-38l32 2c-6 37-31 61-74 61-59 0-76-41-82-99-10-93 101-131 147-64 4 7 5 14 7 22l-32 3c-4-21-16-35-41-35" id="bp"/><path fill="#333" d="M24 0v-261h32V0H24" id="bq"/><path fill="#333" d="M141-36C126-15 110 5 73 4 37 3 15-17 15-53c-1-64 63-63 125-63 3-35-9-54-41-54-24 1-41 7-42 31l-33-3c5-37 33-52 76-52 45 0 72 20 72 64v82c-1 20 7 32 28 27v20c-31 9-61-2-59-35zM48-53c0 20 12 33 32 33 41-3 63-29 60-74-43 2-92-5-92 41" id="br"/><g id="U"><use transform="matrix(0.04938271604938272,0,0,0.04938271604938272,0,0)" xlink:href="#bp"/><use transform="matrix(0.04938271604938272,0,0,0.04938271604938272,8.88888888888889,0)" xlink:href="#bq"/><use transform="matrix(0.04938271604938272,0,0,0.04938271604938272,12.790123456790125,0)" xlink:href="#br"/><use transform="matrix(0.04938271604938272,0,0,0.04938271604938272,22.666666666666668,0)" xlink:href="#bm"/><use transform="matrix(0.04938271604938272,0,0,0.04938271604938272,31.555555555555557,0)" xlink:href="#bm"/></g><path fill="#333" d="M100-194c62-1 85 37 85 99 1 63-27 99-86 99S16-35 15-95c0-66 28-99 85-99zM99-20c44 1 53-31 53-75 0-43-8-75-51-75s-53 32-53 75 10 74 51 75" id="bs"/><path fill="#333" d="M101-234c-31-9-42 10-38 44h38v23H63V0H32v-167H5v-23h27c-7-52 17-82 69-68v24" id="bt"/><g id="V"><use transform="matrix(0.04938271604938272,0,0,0.04938271604938272,0,0)" xlink:href="#bs"/><use transform="matrix(0.04938271604938272,0,0,0.04938271604938272,9.876543209876544,0)" xlink:href="#bt"/></g><g id="W"><use transform="matrix(0.04938271604938272,0,0,0.04938271604938272,0,0)" xlink:href="#bm"/><use transform="matrix(0.04938271604938272,0,0,0.04938271604938272,8.88888888888889,0)" xlink:href="#bn"/><use transform="matrix(0.04938271604938272,0,0,0.04938271604938272,18.765432098765434,0)" xlink:href="#bo"/></g><path fill="#333" d="M115-194c55 1 70 41 70 98S169 2 115 4C84 4 66-9 55-30l1 105H24l-1-265h31l2 30c10-21 28-34 59-34zm-8 174c40 0 45-34 45-75s-6-73-45-74c-42 0-51 32-51 76 0 43 10 73 51 73" id="bu"/><path fill="#333" d="M114-163C36-179 61-72 57 0H25l-1-190h30c1 12-1 29 2 39 6-27 23-49 58-41v29" id="bv"/><path fill="#333" d="M100-194c63 0 86 42 84 106H49c0 40 14 67 53 68 26 1 43-12 49-29l28 8c-11 28-37 45-77 45C44 4 14-33 15-96c1-61 26-98 85-98zm52 81c6-60-76-77-97-28-3 7-6 17-6 28h103" id="bw"/><path fill="#333" d="M59-47c-2 24 18 29 38 22v24C64 9 27 4 27-40v-127H5v-23h24l9-43h21v43h35v23H59v120" id="bx"/><path fill="#333" d="M179-190L93 31C79 59 56 82 12 73V49c39 6 53-20 64-50L1-190h34L92-34l54-156h33" id="by"/><g id="X"><use transform="matrix(0.04938271604938272,0,0,0.04938271604938272,0,0)" xlink:href="#bu"/><use transform="matrix(0.04938271604938272,0,0,0.04938271604938272,9.876543209876544,0)" xlink:href="#bv"/><use transform="matrix(0.04938271604938272,0,0,0.04938271604938272,15.753086419753087,0)" xlink:href="#bs"/><use transform="matrix(0.04938271604938272,0,0,0.04938271604938272,25.629629629629633,0)" xlink:href="#bu"/><use transform="matrix(0.04938271604938272,0,0,0.04938271604938272,35.50617283950618,0)" xlink:href="#bw"/><use transform="matrix(0.04938271604938272,0,0,0.04938271604938272,45.38271604938272,0)" xlink:href="#bv"/><use transform="matrix(0.04938271604938272,0,0,0.04938271604938272,51.25925925925927,0)" xlink:href="#bx"/><use transform="matrix(0.04938271604938272,0,0,0.04938271604938272,56.19753086419754,0)" xlink:href="#by"/></g><g id="Y"><use transform="matrix(0.04938271604938272,0,0,0.04938271604938272,0,0)" xlink:href="#bs"/><use transform="matrix(0.04938271604938272,0,0,0.04938271604938272,9.876543209876544,0)" xlink:href="#bt"/></g><path fill="#3a414a" d="M30 0v-248h33v221h125V0H30" id="bz"/><path fill="#3a414a" d="M100-194c63 0 86 42 84 106H49c0 40 14 67 53 68 26 1 43-12 49-29l28 8c-11 28-37 45-77 45C44 4 14-33 15-96c1-61 26-98 85-98zm52 81c6-60-76-77-97-28-3 7-6 17-6 28h103" id="bA"/><path fill="#3a414a" d="M177-190C167-65 218 103 67 71c-23-6-38-20-44-43l32-5c15 47 100 32 89-28v-30C133-14 115 1 83 1 29 1 15-40 15-95c0-56 16-97 71-98 29-1 48 16 59 35 1-10 0-23 2-32h30zM94-22c36 0 50-32 50-73 0-42-14-75-50-75-39 0-46 34-46 75s6 73 46 73" id="bB"/><path fill="#3a414a" d="M117-194c89-4 53 116 60 194h-32v-121c0-31-8-49-39-48C34-167 62-67 57 0H25l-1-190h30c1 10-1 24 2 32 11-22 29-35 61-36" id="bC"/><path fill="#3a414a" d="M85-194c31 0 48 13 60 33l-1-100h32l1 261h-30c-2-10 0-23-3-31C134-8 116 4 85 4 32 4 16-35 15-94c0-66 23-100 70-100zm9 24c-40 0-46 34-46 75 0 40 6 74 45 74 42 0 51-32 51-76 0-42-9-74-50-73" id="bD"/><g id="Z"><use transform="matrix(0.06172839506172839,0,0,0.06172839506172839,0,0)" xlink:href="#bz"/><use transform="matrix(0.06172839506172839,0,0,0.06172839506172839,12.345679012345679,0)" xlink:href="#bA"/><use transform="matrix(0.06172839506172839,0,0,0.06172839506172839,24.691358024691358,0)" xlink:href="#bB"/><use transform="matrix(0.06172839506172839,0,0,0.06172839506172839,37.03703703703704,0)" xlink:href="#bA"/><use transform="matrix(0.06172839506172839,0,0,0.06172839506172839,49.382716049382715,0)" xlink:href="#bC"/><use transform="matrix(0.06172839506172839,0,0,0.06172839506172839,61.72839506172839,0)" xlink:href="#bD"/></g></defs></g></svg>